<?xml version="1.0" encoding="UTF-8" standalone="no"?>
<!DOCTYPE svg PUBLIC "-//W3C//DTD SVG 1.1//EN"
 "http://www.w3.org/Graphics/SVG/1.1/DTD/svg11.dtd">
<!-- Generated by graphviz version 2.40.1 (20161225.0304)
 -->
<!-- Title: dependencies Pages: 1 -->
<svg width="664pt" height="284pt"
 viewBox="0.00 0.00 664.00 284.00" xmlns="http://www.w3.org/2000/svg" xmlns:xlink="http://www.w3.org/1999/xlink">
<g id="graph0" class="graph" transform="scale(1 1) rotate(0) translate(4 280)">
<title>dependencies</title>
<polygon fill="#ffffff" stroke="transparent" points="-4,4 -4,-280 660,-280 660,4 -4,4"/>
<text text-anchor="start" x="307.0091" y="-42.4" font-family="sans-serif" font-weight="bold" font-size="14.00" fill="#000000">Legend</text>
<polygon fill="#ffffb3" stroke="transparent" points="94,-10 94,-30 114,-30 114,-10 94,-10"/>
<text text-anchor="start" x="117.629" y="-15.4" font-family="sans-serif" font-size="14.00" fill="#000000"> &#160;Declarations</text>
<polygon fill="#8dd3c7" stroke="transparent" points="207,-10 207,-30 227,-30 227,-10 207,-10"/>
<text text-anchor="start" x="230.7251" y="-15.4" font-family="sans-serif" font-size="14.00" fill="#000000"> &#160;Module</text>
<polygon fill="#80b1d3" stroke="transparent" points="293,-10 293,-30 313,-30 313,-10 293,-10"/>
<text text-anchor="start" x="316.7812" y="-15.4" font-family="sans-serif" font-size="14.00" fill="#000000"> &#160;Bootstrap</text>
<polygon fill="#fdb462" stroke="transparent" points="390,-10 390,-30 410,-30 410,-10 390,-10"/>
<text text-anchor="start" x="413.6732" y="-15.4" font-family="sans-serif" font-size="14.00" fill="#000000"> &#160;Providers</text>
<polygon fill="#fb8072" stroke="transparent" points="486,-10 486,-30 506,-30 506,-10 486,-10"/>
<text text-anchor="start" x="509.7258" y="-15.4" font-family="sans-serif" font-size="14.00" fill="#000000"> &#160;Exports</text>
<g id="clust1" class="cluster">
<title>cluster_AppModule</title>
<polygon fill="none" stroke="#000000" stroke-dasharray="1,5" points="8,-70 8,-268 648,-268 648,-70 8,-70"/>
</g>
<g id="clust2" class="cluster">
<title>cluster_AppModule_declarations</title>
<polygon fill="none" stroke="#000000" points="382,-78 382,-130 640,-130 640,-78 382,-78"/>
</g>
<g id="clust5" class="cluster">
<title>cluster_AppModule_imports</title>
<polygon fill="none" stroke="#000000" points="230,-78 230,-130 374,-130 374,-78 230,-78"/>
</g>
<g id="clust7" class="cluster">
<title>cluster_AppModule_bootstrap</title>
<polygon fill="none" stroke="#000000" points="313,-208 313,-260 437,-260 437,-208 313,-208"/>
</g>
<g id="clust8" class="cluster">
<title>cluster_AppModule_providers</title>
<polygon fill="none" stroke="#000000" points="16,-78 16,-130 222,-130 222,-78 16,-78"/>
</g>
<!-- AppComponent -->
<g id="node1" class="node">
<title>AppComponent</title>
<polygon fill="#ffffb3" stroke="#000000" points="631.9399,-122 526.0601,-122 526.0601,-86 631.9399,-86 631.9399,-122"/>
<text text-anchor="middle" x="579" y="-99.8" font-family="Times,serif" font-size="14.00" fill="#000000">AppComponent</text>
</g>
<!-- AppModule -->
<g id="node3" class="node">
<title>AppModule</title>
<polygon fill="#8dd3c7" stroke="#000000" points="416.6571,-187 413.6571,-191 392.6571,-191 389.6571,-187 333.3429,-187 333.3429,-151 416.6571,-151 416.6571,-187"/>
<text text-anchor="middle" x="375" y="-164.8" font-family="Times,serif" font-size="14.00" fill="#000000">AppModule</text>
</g>
<!-- AppComponent&#45;&gt;AppModule -->
<g id="edge1" class="edge">
<title>AppComponent&#45;&gt;AppModule</title>
<path fill="none" stroke="#000000" d="M579,-122.1061C579,-141.3391 579,-169 579,-169 579,-169 426.7747,-169 426.7747,-169"/>
<polygon fill="#000000" stroke="#000000" points="426.7747,-165.5001 416.7747,-169 426.7747,-172.5001 426.7747,-165.5001"/>
</g>
<!-- ModalComponent -->
<g id="node2" class="node">
<title>ModalComponent</title>
<polygon fill="#ffffb3" stroke="#000000" points="507.8823,-122 390.1177,-122 390.1177,-86 507.8823,-86 507.8823,-122"/>
<text text-anchor="middle" x="449" y="-99.8" font-family="Times,serif" font-size="14.00" fill="#000000">ModalComponent</text>
</g>
<!-- ModalComponent&#45;&gt;AppModule -->
<g id="edge2" class="edge">
<title>ModalComponent&#45;&gt;AppModule</title>
<path fill="none" stroke="#000000" d="M403.4435,-122.1061C403.4435,-122.1061 403.4435,-140.991 403.4435,-140.991"/>
<polygon fill="#000000" stroke="#000000" points="399.9436,-140.9909 403.4435,-150.991 406.9436,-140.991 399.9436,-140.9909"/>
</g>
<!-- AppComponent  -->
<g id="node5" class="node">
<title>AppComponent </title>
<polygon fill="#80b1d3" stroke="#000000" points="429.439,-252 320.561,-252 320.561,-216 429.439,-216 429.439,-252"/>
<text text-anchor="middle" x="375" y="-229.8" font-family="Times,serif" font-size="14.00" fill="#000000">AppComponent </text>
</g>
<!-- AppModule&#45;&gt;AppComponent  -->
<g id="edge4" class="edge">
<title>AppModule&#45;&gt;AppComponent </title>
<path fill="none" stroke="#000000" stroke-dasharray="1,5" d="M375,-187.1061C375,-187.1061 375,-205.991 375,-205.991"/>
<polygon fill="#000000" stroke="#000000" points="371.5001,-205.9909 375,-215.991 378.5001,-205.991 371.5001,-205.9909"/>
</g>
<!-- AppRoutingModule -->
<g id="node4" class="node">
<title>AppRoutingModule</title>
<polygon fill="#8dd3c7" stroke="#000000" points="366.2744,-122 363.2744,-126 342.2744,-126 339.2744,-122 237.7256,-122 237.7256,-86 366.2744,-86 366.2744,-122"/>
<text text-anchor="middle" x="302" y="-99.8" font-family="Times,serif" font-size="14.00" fill="#000000">AppRoutingModule</text>
</g>
<!-- AppRoutingModule&#45;&gt;AppModule -->
<g id="edge3" class="edge">
<title>AppRoutingModule&#45;&gt;AppModule</title>
<path fill="none" stroke="#000000" d="M349.7795,-122.1061C349.7795,-122.1061 349.7795,-140.991 349.7795,-140.991"/>
<polygon fill="#000000" stroke="#000000" points="346.2795,-140.9909 349.7795,-150.991 353.2795,-140.991 346.2795,-140.9909"/>
</g>
<!-- CambiarTemaService -->
<g id="node6" class="node">
<title>CambiarTemaService</title>
<ellipse fill="#fdb462" stroke="#000000" cx="119" cy="-104" rx="95.4598" ry="18"/>
<text text-anchor="middle" x="119" y="-99.8" font-family="Times,serif" font-size="14.00" fill="#000000">CambiarTemaService</text>
</g>
<!-- CambiarTemaService&#45;&gt;AppModule -->
<g id="edge5" class="edge">
<title>CambiarTemaService&#45;&gt;AppModule</title>
<path fill="none" stroke="#000000" d="M119,-122.1061C119,-141.3391 119,-169 119,-169 119,-169 323.2994,-169 323.2994,-169"/>
<polygon fill="#000000" stroke="#000000" points="323.2995,-172.5001 333.2994,-169 323.2994,-165.5001 323.2995,-172.5001"/>
</g>
</g>
</svg>
